<svg width="27" height="27" viewBox="0 0 27 27" fill="none" xmlns="http://www.w3.org/2000/svg">
<path fill-rule="evenodd" clip-rule="evenodd" d="M1.11525 1.11525C1.82933 0.401166 2.79783 0 3.80769 0H6.57692C7.15045 0 7.61539 0.464935 7.61539 1.03846C7.61539 1.61199 7.15045 2.07692 6.57692 2.07692H3.80769C3.34866 2.07692 2.90844 2.25927 2.58385 2.58385C2.25927 2.90844 2.07692 3.34866 2.07692 3.80769V6.57692C2.07692 7.15045 1.61199 7.61539 1.03846 7.61539C0.464935 7.61539 0 7.15045 0 6.57692V3.80769C0 2.79783 0.401166 1.82933 1.11525 1.11525ZM19.3846 1.03846C19.3846 0.464935 19.8496 0 20.4231 0H23.1923C24.2022 0 25.1707 0.401166 25.8848 1.11525C26.5988 1.82933 27 2.79783 27 3.80769V6.57692C27 7.15045 26.5351 7.61539 25.9615 7.61539C25.388 7.61539 24.9231 7.15045 24.9231 6.57692V3.80769C24.9231 3.34866 24.7407 2.90844 24.4161 2.58385C24.0916 2.25927 23.6513 2.07692 23.1923 2.07692H20.4231C19.8496 2.07692 19.3846 1.61199 19.3846 1.03846ZM1.03846 19.3846C1.61199 19.3846 2.07692 19.8496 2.07692 20.4231V23.1923C2.07692 23.6513 2.25927 24.0916 2.58385 24.4161C2.90844 24.7407 3.34866 24.9231 3.80769 24.9231H6.57692C7.15045 24.9231 7.61539 25.388 7.61539 25.9615C7.61539 26.5351 7.15045 27 6.57692 27H3.80769C2.79783 27 1.82933 26.5988 1.11525 25.8848C0.401166 25.1707 0 24.2022 0 23.1923V20.4231C0 19.8496 0.464935 19.3846 1.03846 19.3846ZM25.9615 19.3846C26.5351 19.3846 27 19.8496 27 20.4231V23.1923C27 24.2022 26.5988 25.1707 25.8848 25.8848C25.1707 26.5988 24.2022 27 23.1923 27H20.4231C19.8496 27 19.3846 26.5351 19.3846 25.9615C19.3846 25.388 19.8496 24.9231 20.4231 24.9231H23.1923C23.6513 24.9231 24.0916 24.7407 24.4161 24.4161C24.7407 24.0916 24.9231 23.6513 24.9231 23.1923V20.4231C24.9231 19.8496 25.388 19.3846 25.9615 19.3846Z" fill="white"/>
<path d="M18.5837 6.91125C18.5137 6.91125 18.4437 6.89375 18.3825 6.85875C16.7025 5.9925 15.25 5.625 13.5087 5.625C11.7762 5.625 10.1312 6.03625 8.63499 6.85875C8.42499 6.9725 8.16249 6.89375 8.03999 6.68375C7.98542 6.58142 7.97318 6.46175 8.0059 6.35049C8.03863 6.23923 8.1137 6.14524 8.21499 6.08875C9.84249 5.205 11.6275 4.75 13.5087 4.75C15.3725 4.75 17 5.16125 18.785 6.08C19.0037 6.19375 19.0825 6.45625 18.9687 6.66625C18.9341 6.73919 18.8797 6.80088 18.8115 6.84423C18.7434 6.88757 18.6645 6.9108 18.5837 6.91125ZM6.06249 11.505C5.98183 11.5058 5.90255 11.4841 5.83342 11.4426C5.7643 11.401 5.70803 11.3411 5.67088 11.2695C5.63372 11.1979 5.61713 11.1174 5.62293 11.037C5.62873 10.9565 5.6567 10.8793 5.70374 10.8138C6.56999 9.58875 7.67249 8.62625 8.98499 7.9525C11.7325 6.535 15.25 6.52625 18.0062 7.94375C19.3187 8.6175 20.4212 9.57125 21.2875 10.7875C21.3211 10.8345 21.345 10.8877 21.3579 10.944C21.3708 11.0004 21.3724 11.0587 21.3626 11.1156C21.3529 11.1726 21.3319 11.227 21.301 11.2758C21.2701 11.3246 21.2298 11.3668 21.1825 11.4C20.9812 11.54 20.71 11.4962 20.57 11.295C19.8034 10.2106 18.7857 9.32797 17.6037 8.7225C15.0925 7.43625 11.8812 7.43625 9.37874 8.73125C8.18874 9.34375 7.19124 10.2188 6.40374 11.3212C6.33374 11.4438 6.20249 11.505 6.06249 11.505ZM11.5312 22.0662C11.4739 22.0669 11.417 22.0556 11.3642 22.033C11.3115 22.0104 11.2641 21.977 11.225 21.935C10.4637 21.1737 10.0525 20.6838 9.46624 19.625C8.86249 18.5487 8.54749 17.2362 8.54749 15.8275C8.54749 13.2288 10.77 11.1113 13.5 11.1113C16.23 11.1113 18.4525 13.2288 18.4525 15.8275C18.4525 16.0725 18.26 16.265 18.015 16.265C17.77 16.265 17.5775 16.0725 17.5775 15.8275C17.5775 13.71 15.7487 11.9863 13.5 11.9863C11.2512 11.9863 9.42249 13.71 9.42249 15.8275C9.42249 17.0875 9.70249 18.2513 10.2362 19.1962C10.7962 20.2025 11.1812 20.6313 11.855 21.3138C12.0212 21.4888 12.0212 21.76 11.855 21.935C11.7587 22.0225 11.645 22.0662 11.5312 22.0662ZM17.805 20.4475C16.7637 20.4475 15.845 20.185 15.0925 19.6687C13.7887 18.785 13.01 17.35 13.01 15.8275C13.01 15.5825 13.2025 15.39 13.4475 15.39C13.6925 15.39 13.885 15.5825 13.885 15.8275C13.885 17.0612 14.515 18.225 15.5825 18.9425C16.2037 19.3625 16.93 19.5638 17.805 19.5638C18.015 19.5638 18.365 19.5375 18.715 19.4762C18.9512 19.4325 19.1787 19.59 19.2225 19.835C19.2662 20.0712 19.1087 20.2987 18.8637 20.3425C18.365 20.4387 17.9275 20.4475 17.805 20.4475ZM16.0462 22.25C16.0112 22.25 15.9675 22.2412 15.9325 22.2325C14.5412 21.8475 13.6312 21.3312 12.6775 20.395C12.0732 19.7981 11.5941 19.0868 11.268 18.3025C10.942 17.5182 10.7757 16.6768 10.7787 15.8275C10.7787 14.41 11.9862 13.255 13.4737 13.255C14.9612 13.255 16.1687 14.41 16.1687 15.8275C16.1687 16.7638 16.9825 17.525 17.9887 17.525C18.995 17.525 19.8087 16.7638 19.8087 15.8275C19.8087 12.5287 16.965 9.85125 13.465 9.85125C10.98 9.85125 8.70499 11.2337 7.68124 13.3775C7.33999 14.0862 7.16499 14.9175 7.16499 15.8275C7.16499 16.51 7.22624 17.5863 7.75124 18.9862C7.83874 19.2138 7.72499 19.4675 7.49749 19.5462C7.26999 19.6337 7.01624 19.5113 6.93749 19.2925C6.5151 18.1861 6.29863 17.0118 6.29874 15.8275C6.29874 14.7775 6.49999 13.8238 6.89374 12.9925C8.05749 10.5512 10.6387 8.9675 13.465 8.9675C17.4462 8.9675 20.6837 12.0387 20.6837 15.8187C20.6837 17.2362 19.4762 18.3913 17.9887 18.3913C16.5012 18.3913 15.2937 17.2362 15.2937 15.8187C15.2937 14.8825 14.48 14.1213 13.4737 14.1213C12.4675 14.1213 11.6537 14.8825 11.6537 15.8187C11.6537 17.315 12.2312 18.715 13.29 19.765C14.1212 20.5875 14.9175 21.0425 16.1512 21.3838C16.3875 21.445 16.5187 21.69 16.4575 21.9175C16.4137 22.1188 16.23 22.25 16.0462 22.25Z" fill="white"/>
</svg>
