<svg xmlns="http://www.w3.org/2000/svg" width="550.801" height="550.801" viewBox="0 0 550.801 550.801" xml:space="preserve"><path d="M396.974 421.707h-.337c-1.709 6.823-3.418 15.535-5.295 22.19l-6.829 24.416h25.439l-7.172-24.416c-2.051-6.824-4.097-15.367-5.806-22.19m-106.028 25.091-14.855 24.247v.343h24.933v-24.59c0-6.655.343-13.489.85-20.656h-.686c-3.586 7.167-6.482 13.663-10.242 20.656"/><path d="M475.095 131.997c-.032-2.528-.833-5.023-2.568-6.992L366.324 3.691c-.021-.031-.053-.042-.084-.073-.633-.707-1.36-1.292-2.141-1.804a11 11 0 0 0-.707-.422A11.7 11.7 0 0 0 361.261.5c-.2-.058-.379-.14-.58-.195A11 11 0 0 0 358.203 0H97.2C85.292 0 75.6 9.693 75.6 21.601v507.6c0 11.913 9.692 21.601 21.6 21.601h356.4c11.918 0 21.601-9.688 21.601-21.601V133.202c-.001-.406-.064-.806-.106-1.205M213.78 517.324l-1.706-44.054c-.512-13.832-1.021-30.565-1.021-47.303h-.515c-3.583 14.691-8.369 31.081-12.806 44.571l-14.003 44.908H163.41l-12.297-44.571c-3.758-13.489-7.684-29.879-10.415-44.908h-.34c-.68 15.541-1.195 33.302-2.049 47.646l-2.051 43.711h-24.073l7.343-115.087h34.665l11.27 38.417c3.586 13.315 7.169 27.659 9.735 41.148h.514c3.246-13.315 7.172-28.508 10.929-41.322l12.29-38.243h33.982l6.317 115.087zm125.155-26.462h-13.321v26.462h-24.59v-26.462h-49.177v-16.906l42.005-67.616h31.762v65.059h13.321zm83.652 26.462-8.875-29.541h-32.959l-8.195 29.541h-26.979l35.174-115.087h34.156l35.685 115.087zM97.2 366.752V21.601h250.203v110.515c0 5.961 4.831 10.8 10.8 10.8H453.6l.011 223.836z"/><path d="M269.623 103.148c-7.733 0-15.282.797-22.573 2.302 4.348 5.054 7.322 10.233 9.3 14.937 4.351-.612 8.759-1.034 13.273-1.034 52.632 0 95.446 42.823 95.446 95.458 0 52.629-42.82 95.451-95.446 95.451-42.662 0-78.862-28.144-91.057-66.825-1.025.079-2.051.187-3.087.187a39.8 39.8 0 0 1-14.289-2.666c11.815 48.964 55.885 85.503 108.433 85.503 61.564 0 111.646-50.087 111.646-111.651.001-61.574-50.081-111.662-111.646-111.662"/><path d="M269.623 244.83c16.556 0 30.029-13.468 30.029-30.029 0-16.562-13.474-30.035-30.029-30.035-16.559 0-30.03 13.474-30.03 30.035s13.471 30.029 30.03 30.029m0-43.859c7.623 0 13.829 6.205 13.829 13.835s-6.206 13.83-13.829 13.83c-7.625 0-13.83-6.199-13.83-13.83s6.205-13.835 13.83-13.835m-55.719-63.516 14.813-8.767c-5.226-5.439-10.033-8.851-14.03-10.974-.248.135-.485.304-.733.443zm-34.283 45.626.032-34.111a111 111 0 0 0-18.323 39.16c3.009-1.598 6.194-2.953 9.629-3.807a42.8 42.8 0 0 1 8.662-1.242"/><path d="M184.228 227.404c11.749-2.911 19.941-11.784 19.989-20.859h.044l.295-107.71s23.443-1.252 46.414 34.733c0 0 .048-18.57-17.605-32.173-34.446-24.079-34.359-29.745-34.359-29.745-6.56.772-7.23 5.748-7.23 5.748v113.427c-4.931-1.711-10.824-2.01-16.859-.53-13.371 3.328-22.108 14.37-19.548 24.64 1.495 9.466 15.487 15.844 28.859 12.469"/></svg>