<svg xmlns="http://www.w3.org/2000/svg" viewBox="0 0 58 58" xml:space="preserve"><path d="m50.95 12.187-.77-.77L40.084 1.321l-.002-.001-.768-.768A1.9 1.9 0 0 0 37.985 0H8.963C7.777 0 6.5.916 6.5 2.926V56c0 .838.843 1.654 1.839 1.91.05.013.097.032.148.042q.236.047.476.048h40.074q.24 0 .475-.048c.051-.01.098-.029.148-.042.997-.256 1.84-1.072 1.84-1.91V13.978c0-.765-.092-1.332-.55-1.791M42.5 21c0 7.168-5.832 13-13 13s-13-5.832-13-13 5.832-13 13-13c2.898 0 5.721.977 8 2.76V14h2.948a12.9 12.9 0 0 1 2.052 7m-1.519-9H39.5V3.565L47.935 12zM8.963 56c-.071 0-.135-.025-.198-.049a.46.46 0 0 1-.265-.414V41h41v14.537a.46.46 0 0 1-.265.414c-.063.024-.127.049-.198.049zM8.5 39V2.926c0-.217.033-.926.463-.926h28.595a1.5 1.5 0 0 0-.058.392v5.942A15 15 0 0 0 29.5 6c-8.271 0-15 6.729-15 15s6.729 15 15 15 15-6.729 15-15c0-2.465-.607-4.849-1.749-7h6.357c.135 0 .264-.025.39-.058l.001.036V39z"/><path d="m20.42 50.814-2.994-6.89h-1.668V54h1.668v-6.932l2.269 5.606h1.45l2.255-5.606V54h1.668V43.924H23.4zm12.448-6.07a3.4 3.4 0 0 0-1.128-.615 4 4 0 0 0-1.271-.205H27.57V54h1.641v-3.637h1.217q.793 0 1.449-.232c.656-.232.811-.374 1.121-.656q.465-.423.725-1.046.26-.622.26-1.388 0-.724-.308-1.306c-.308-.582-.474-.717-.807-.991m-.622 3.329q-.15.417-.396.649c-.246.232-.344.267-.54.335a1.8 1.8 0 0 1-.595.103h-1.504v-3.992h1.23q.628 0 1.012.198.382.198.595.492.211.294.28.615a3 3 0 0 1 .068.567q0 .616-.15 1.033m8.9-4.149h-1.668l-4.361 6.426v1.299h4.361V54h1.668v-2.352h1.053V50.35h-1.053zm-1.667 6.426H36.58l2.898-4.512zm-2.442-30.194-11-7a1 1 0 0 0-1.019-.033A1 1 0 0 0 24.5 14v14a1.001 1.001 0 0 0 1.537.844l11-7a1.002 1.002 0 0 0 0-1.688M26.5 26.179V15.821L34.637 21z"/></svg>
