<svg xmlns="http://www.w3.org/2000/svg" viewBox="0 0 303.738 303.738" xml:space="preserve"><path d="M127.035 148.084c-22.601 0-40.988 18.388-40.988 40.988 0 22.602 18.388 40.989 40.988 40.989 22.602-.001 40.989-18.389 40.989-40.989s-18.385-40.988-40.989-40.988m0 66.977c-14.33 0-25.988-11.659-25.988-25.989s11.658-25.988 25.992-25.988c14.328 0 25.985 11.658 25.985 25.988s-11.659 25.989-25.989 25.989"/><path d="M257.568 0H165.16c-18.638 0-33.8 15.168-33.8 33.813v40.593h-19.634a7.5 7.5 0 0 0-7.5 7.5v13.089a95.3 95.3 0 0 0-27.582 11.431l-9.258-9.259a7.5 7.5 0 0 0-10.606 0l-21.65 21.649a7.5 7.5 0 0 0-.001 10.608l9.259 9.259a95.3 95.3 0 0 0-11.43 27.581H19.869a7.5 7.5 0 0 0-7.5 7.5v30.618c0 4.143 3.357 7.5 7.5 7.5h13.089a95.3 95.3 0 0 0 11.43 27.581l-9.259 9.258a7.5 7.5 0 0 0 0 10.608l21.65 21.65a7.5 7.5 0 0 0 10.607 0l9.258-9.259a95.3 95.3 0 0 0 27.582 11.431v13.089c0 4.143 3.357 7.5 7.5 7.5h30.618c4.143 0 7.5-3.357 7.5-7.5v-13.089a95.3 95.3 0 0 0 27.581-11.431l9.26 9.259a7.5 7.5 0 0 0 10.607 0l21.65-21.65a7.504 7.504 0 0 0 0-10.608l-9.259-9.259a95.3 95.3 0 0 0 11.43-27.58h13.089c4.143 0 7.5-3.357 7.5-7.5v-30.618c0-4.143-3.357-7.5-7.5-7.5h-13.089a95 95 0 0 0-3.111-10.26l14.218-10.237h25.349c18.638 0 33.801-15.17 33.801-33.816V33.813C291.369 15.168 276.206 0 257.568 0m-49.952 175.04a7.5 7.5 0 0 0 7.391 6.223h11.695v15.618h-11.695a7.5 7.5 0 0 0-7.391 6.223c-2.067 11.963-6.672 23.073-13.685 33.023a7.5 7.5 0 0 0 .827 9.624l8.274 8.272-11.044 11.044-8.274-8.273a7.5 7.5 0 0 0-9.624-.826c-9.947 7.013-21.059 11.616-33.023 13.685a7.5 7.5 0 0 0-6.223 7.391v11.695h-15.618v-11.695a7.5 7.5 0 0 0-6.223-7.391c-11.964-2.067-23.075-6.672-33.023-13.685a7.5 7.5 0 0 0-9.625.826l-8.272 8.273-11.044-11.044 8.273-8.272a7.5 7.5 0 0 0 .827-9.624c-7.013-9.95-11.617-21.061-13.685-33.023a7.5 7.5 0 0 0-7.391-6.223H27.369v-15.618h11.695a7.5 7.5 0 0 0 7.391-6.223c2.067-11.962 6.672-23.073 13.685-33.025a7.5 7.5 0 0 0-.827-9.624l-8.273-8.272 11.044-11.043 8.272 8.273a7.5 7.5 0 0 0 9.624.826c9.951-7.013 21.062-11.617 33.024-13.685a7.5 7.5 0 0 0 6.223-7.391V89.405h12.134v22.544c0 18.646 15.162 33.816 33.8 33.816h7.544v28.211a7.5 7.5 0 0 0 11.883 6.086l20.682-14.892a82 82 0 0 1 2.346 9.87m68.753-63.091c0 10.375-8.434 18.816-18.801 18.816H229.8a7.5 7.5 0 0 0-4.383 1.414l-37.714 27.155v-21.069a7.5 7.5 0 0 0-7.5-7.5H165.16c-10.366 0-18.8-8.441-18.8-18.816V33.813c0-10.373 8.434-18.813 18.8-18.813h92.408c10.367 0 18.801 8.44 18.801 18.813z"/><path d="M210.528 24.636c-17.281 0-31.341 14.06-31.341 31.342a7.5 7.5 0 0 0 7.5 7.5 7.5 7.5 0 0 0 7.5-7.5c0-9.011 7.33-16.342 16.341-16.342s16.341 7.331 16.341 16.342c0 9.021-11.66 20.565-19.376 28.204-.781.774-1.54 1.525-2.268 2.253a7.5 7.5 0 1 0 10.608 10.607c.71-.711 1.452-1.445 2.215-2.201 10.054-9.953 23.822-23.586 23.822-38.863-.001-17.283-14.06-31.342-31.342-31.342m-2.162 81.102c-2.37 0-4.691.96-6.36 2.64a9.03 9.03 0 0 0-2.64 6.36c0 2.37.96 4.69 2.64 6.37a9.06 9.06 0 0 0 6.36 2.63c2.37 0 4.689-.96 6.37-2.63 1.67-1.681 2.63-4 2.63-6.37s-.96-4.69-2.63-6.36c-1.68-1.68-4-2.64-6.37-2.64"/></svg>