<svg width="24" height="24" viewBox="0 0 24 24" fill="none" xmlns="http://www.w3.org/2000/svg">
<path d="M3.41016 11.02V14.56C3.41016 15.74 4.19016 17.29 5.14016 18L9.44016 21.21C10.1402 21.74 11.0702 22 12.0002 22" stroke="#778890" stroke-width="1.5" stroke-linecap="round" stroke-linejoin="round"/>
<path d="M20.5902 10.55V7.12C20.5902 5.89 19.6502 4.53 18.5002 4.1L13.5102 2.23C12.6802 1.92 11.3202 1.92 10.4902 2.23L5.50016 4.11C4.35016 4.54 3.41016 5.9 3.41016 7.12" stroke="#E97C22" stroke-width="1.5" stroke-linecap="round" stroke-linejoin="round"/>
<path d="M20 16C20 18.21 18.21 20 16 20C13.79 20 12 18.21 12 16C12 15.27 12.19 14.59 12.53 14.01C13.22 12.81 14.51 12.01 15.99 12.01C16.6 12.01 17.17 12.15 17.69 12.39" stroke="#778890" stroke-width="1.5" stroke-linecap="round" stroke-linejoin="round"/>
<path d="M20.9955 21H21.0045" stroke="#778890" stroke-width="2" stroke-linecap="round" stroke-linejoin="round"/>
</svg>
