<svg width="800" height="800" viewBox="0 0 16 16" xmlns="http://www.w3.org/2000/svg"><path fill-rule="evenodd" clip-rule="evenodd" d="m14.773 3.485-.78-.184-2.108 2.096-1.194-1.216 2.056-2.157-.18-.792a4.4 4.4 0 0 0-1.347-.228 3.6 3.6 0 0 0-1.457.28 3.8 3.8 0 0 0-1.186.84 3.7 3.7 0 0 0-.875 1.265 3.94 3.94 0 0 0 0 2.966 335 335 0 0 0-6.173 6.234c-.21.275-.31.618-.284.963a1.4 1.4 0 0 0 .464.967q.188.205.437.328c.17.075.353.118.538.127.316-.006.619-.126.854-.337 1.548-1.457 4.514-4.45 6.199-6.204.457.194.948.294 1.444.293a3.74 3.74 0 0 0 2.677-1.133 3.9 3.9 0 0 0 1.111-2.73 4.2 4.2 0 0 0-.196-1.378M2.933 13.928a.3.3 0 0 1-.135.07.4.4 0 0 1-.149 0 .35.35 0 0 1-.144-.057.34.34 0 0 1-.114-.11c-.14-.143-.271-.415-.14-.568 1.37-1.457 4.191-4.305 5.955-6.046q.15.199.328.376.177.185.38.341c-1.706 1.75-4.488 4.564-5.98 5.994zm11.118-9.065c.002.765-.296 1.5-.832 2.048a2.86 2.86 0 0 1-4.007 0 2.99 2.99 0 0 1-.635-3.137A2.75 2.75 0 0 1 10.14 2.18a2.8 2.8 0 0 1 1.072-.214h.254L9.649 3.839v.696l1.895 1.886h.66l1.847-1.816zM3.24 6.688h1.531l.705.717.678-.674-.665-.678V6.01l.057-1.649-.22-.437-2.86-1.882-.591.066-.831.849-.066.599 1.838 2.918.424.215zm-.945-3.632L4.609 4.58 4.57 5.703H3.494L2.002 3.341zm7.105 6.96.674-.673 3.106 3.185a1.48 1.48 0 0 1 0 2.039 1.4 1.4 0 0 1-1.549.315 1.3 1.3 0 0 1-.437-.315l-3.142-3.203.679-.678 3.132 3.194a.4.4 0 0 0 .153.105.48.48 0 0 0 .359 0 .4.4 0 0 0 .153-.105.4.4 0 0 0 .1-.153.5.5 0 0 0 .036-.184.6.6 0 0 0-.035-.184.4.4 0 0 0-.1-.153z"/></svg>